<?xml version="1.0" standalone="no"?>
<!DOCTYPE svg PUBLIC "-//W3C//DTD SVG 20010904//EN"
 "http://www.w3.org/TR/2001/REC-SVG-20010904/DTD/svg10.dtd">
<svg version="1.0" xmlns="http://www.w3.org/2000/svg"
 width="1320.000000pt" height="1000.000000pt" viewBox="0 0 1320.000000 1000.000000"
 preserveAspectRatio="xMidYMid meet">

<g transform="translate(0.000000,1000.000000) scale(0.100000,-0.100000)"
fill="#000000" stroke="none">
<path d="M0 5000 l0 -5000 6600 0 6600 0 0 5000 0 5000 -6600 0 -6600 0 0
-5000z m2810 265 l0 -2545 -150 0 -150 0 0 2400 0 2400 -120 0 -120 0 0 -2520
0 -2520 1315 0 1315 0 0 385 0 385 -650 0 -650 0 0 145 0 145 795 0 795 0 0
-675 0 -675 -1605 0 -1605 0 0 2810 0 2810 415 0 415 0 0 -2545z m550 150 l0
-2395 645 0 645 0 0 -150 0 -150 -790 0 -790 0 0 2545 0 2545 145 0 145 0 0
-2395z m6032 2355 c558 -36 1085 -231 1534 -568 69 -52 163 -130 210 -175 l86
-82 -99 -105 -99 -104 -120 106 c-330 291 -662 471 -1059 573 -239 61 -319 70
-630 70 -293 0 -374 -8 -570 -57 -849 -209 -1518 -811 -1795 -1615 -162 -470
-183 -981 -60 -1450 186 -702 661 -1283 1320 -1614 366 -184 750 -267 1175
-256 370 9 644 78 1010 251 210 100 510 280 498 300 -4 6 -104 155 -223 332
l-215 320 -90 -54 c-216 -131 -439 -234 -621 -287 -253 -73 -578 -73 -841 0
-471 133 -866 463 -1093 915 -118 235 -172 462 -172 725 1 550 287 1085 752
1404 167 115 383 202 599 243 155 30 488 32 625 5 222 -45 452 -136 637 -253
49 -31 93 -54 98 -52 5 1 47 46 93 98 l84 95 -30 26 c-101 86 -385 233 -566
293 -415 138 -829 138 -1240 0 -438 -148 -816 -454 -1063 -861 -184 -303 -277
-642 -277 -1008 0 -314 63 -590 198 -863 220 -447 609 -804 1066 -979 245 -93
436 -127 721 -127 191 0 222 2 340 27 72 16 176 43 233 62 104 35 308 127 359
163 16 10 45 29 65 41 l38 22 75 -114 c41 -63 75 -119 75 -124 0 -5 -39 -32
-87 -60 -229 -136 -497 -232 -777 -279 -131 -22 -417 -29 -559 -15 -585 61
-1137 354 -1508 802 -262 315 -419 648 -495 1048 -32 167 -44 466 -24 632 68
587 364 1140 805 1504 451 372 1018 556 1587 516 359 -26 663 -116 939 -277
135 -80 406 -276 465 -336 l62 -63 -264 -310 c-145 -170 -269 -311 -276 -312
-7 -2 -49 27 -93 63 -103 85 -270 196 -365 244 -86 43 -228 90 -350 116 -128
27 -401 25 -533 -4 -385 -85 -685 -286 -889 -597 -161 -245 -233 -489 -232
-780 2 -270 77 -505 240 -750 70 -106 238 -284 335 -356 346 -256 745 -342
1139 -245 199 49 409 152 752 369 76 48 142 87 148 87 9 0 760 -1121 760
-1135 0 -7 -357 -241 -467 -306 -502 -296 -922 -432 -1403 -455 -222 -10 -527
19 -750 73 -372 88 -776 286 -1077 525 -185 148 -411 388 -553 588 -550 775
-676 1681 -356 2560 188 515 536 979 976 1302 425 311 928 495 1440 527 196
12 210 12 382 1z"/>
</g>
</svg>
